solid ascii
  facet normal 0.000000e+00 0.000000e+00 1.000000e+00
    outer loop
      vertex   -8.129510e+01 1.331747e+02 9.500000e+00
      vertex   -1.142951e+02 1.331747e+02 9.500000e+00
      vertex   -8.129510e+01 8.917475e+01 9.500000e+00
    endloop
  endfacet
  facet normal 0.000000e+00 0.000000e+00 1.000000e+00
    outer loop
      vertex   -8.129510e+01 8.917475e+01 9.500000e+00
      vertex   -1.142951e+02 1.331747e+02 9.500000e+00
      vertex   -1.142951e+02 8.917475e+01 9.500000e+00
    endloop
  endfacet
  facet normal 0.000000e+00 -0.000000e+00 -1.000000e+00
    outer loop
      vertex   -1.142951e+02 1.331747e+02 5.000000e+00
      vertex   -8.129510e+01 1.331747e+02 5.000000e+00
      vertex   -1.142951e+02 8.917475e+01 5.000000e+00
    endloop
  endfacet
  facet normal 0.000000e+00 0.000000e+00 -1.000000e+00
    outer loop
      vertex   -1.142951e+02 8.917475e+01 5.000000e+00
      vertex   -8.129510e+01 1.331747e+02 5.000000e+00
      vertex   -8.129510e+01 8.917475e+01 5.000000e+00
    endloop
  endfacet
  facet normal 1.000000e+00 -0.000000e+00 0.000000e+00
    outer loop
      vertex   -8.129510e+01 8.917475e+01 9.500000e+00
      vertex   -8.129510e+01 8.917475e+01 5.000000e+00
      vertex   -8.129510e+01 1.331747e+02 9.500000e+00
    endloop
  endfacet
  facet normal 1.000000e+00 -0.000000e+00 0.000000e+00
    outer loop
      vertex   -8.129510e+01 1.331747e+02 9.500000e+00
      vertex   -8.129510e+01 8.917475e+01 5.000000e+00
      vertex   -8.129510e+01 1.331747e+02 5.000000e+00
    endloop
  endfacet
  facet normal -4.306320e-16 -1.000000e+00 -0.000000e+00
    outer loop
      vertex   -1.142951e+02 8.917475e+01 9.500000e+00
      vertex   -1.142951e+02 8.917475e+01 5.000000e+00
      vertex   -8.129510e+01 8.917475e+01 9.500000e+00
    endloop
  endfacet
  facet normal -4.306320e-16 -1.000000e+00 0.000000e+00
    outer loop
      vertex   -8.129510e+01 8.917475e+01 9.500000e+00
      vertex   -1.142951e+02 8.917475e+01 5.000000e+00
      vertex   -8.129510e+01 8.917475e+01 5.000000e+00
    endloop
  endfacet
  facet normal -1.000000e+00 -0.000000e+00 -0.000000e+00
    outer loop
      vertex   -1.142951e+02 1.331747e+02 9.500000e+00
      vertex   -1.142951e+02 1.331747e+02 5.000000e+00
      vertex   -1.142951e+02 8.917475e+01 9.500000e+00
    endloop
  endfacet
  facet normal -1.000000e+00 -0.000000e+00 -0.000000e+00
    outer loop
      vertex   -1.142951e+02 8.917475e+01 9.500000e+00
      vertex   -1.142951e+02 1.331747e+02 5.000000e+00
      vertex   -1.142951e+02 8.917475e+01 5.000000e+00
    endloop
  endfacet
  facet normal 0.000000e+00 1.000000e+00 0.000000e+00
    outer loop
      vertex   -8.129510e+01 1.331747e+02 9.500000e+00
      vertex   -8.129510e+01 1.331747e+02 5.000000e+00
      vertex   -1.142951e+02 1.331747e+02 9.500000e+00
    endloop
  endfacet
  facet normal 0.000000e+00 1.000000e+00 0.000000e+00
    outer loop
      vertex   -1.142951e+02 1.331747e+02 9.500000e+00
      vertex   -8.129510e+01 1.331747e+02 5.000000e+00
      vertex   -1.142951e+02 1.331747e+02 5.000000e+00
    endloop
  endfacet
endsolid
